0
SECTION
2
HEADER
9
$INSUNITS
70
4
9
$ACADVER
1
AC1014
9
$HANDSEED
5
FFFF
0
ENDSEC
0
SECTION
2
TABLES
0
TABLE
2
VPORT
5
8
100
AcDbSymbolTable
0
ENDTAB
0
TABLE
2
LTYPE
5
5
100
AcDbSymbolTable
0
LTYPE
5
14
100
AcDbSymbolTableRecord
100
AcDbLinetypeTableRecord
2
BYBLOCK
70
0
0
LTYPE
5
15
100
AcDbSymbolTableRecord
100
AcDbLinetypeTableRecord
2
BYLAYER
70
0
0
ENDTAB
0
TABLE
2
LAYER
5
2
100
AcDbSymbolTable
70
2
0
LAYER
5
50
100
AcDbSymbolTableRecord
100
AcDbLayerTableRecord
2
0
70
0
6
CONTINUOUS
0
ENDTAB
0
TABLE
2
STYLE
5
3
100
AcDbSymbolTable
70
1
0
STYLE
5
11
100
AcDbSymbolTableRecord
100
AcDbTextStyleTableRecord
2
STANDARD
70
0
0
ENDTAB
0
TABLE
2
VIEW
5
6
100
AcDbSymbolTable
70
0
0
ENDTAB
0
TABLE
2
UCS
5
7
100
AcDbSymbolTable
70
0
0
ENDTAB
0
TABLE
2
APPID
5
9
100
AcDbSymbolTable
70
2
0
APPID
5
12
100
AcDbSymbolTableRecord
100
AcDbRegAppTableRecord
2
ACAD
70
0
0
ENDTAB
0
TABLE
2
DIMSTYLE
5
A
100
AcDbSymbolTable
70
1
0
ENDTAB
0
TABLE
2
BLOCK_RECORD
5
1
100
AcDbSymbolTable
70
1
0
BLOCK_RECORD
5
1F
100
AcDbSymbolTableRecord
100
AcDbBlockTableRecord
2
*MODEL_SPACE
0
BLOCK_RECORD
5
1B
100
AcDbSymbolTableRecord
100
AcDbBlockTableRecord
2
*PAPER_SPACE
0
ENDTAB
0
ENDSEC
0
SECTION
2
BLOCKS
0
BLOCK
5
20
100
AcDbEntity
100
AcDbBlockBegin
2
*MODEL_SPACE
0
ENDBLK
5
21
100
AcDbEntity
100
AcDbBlockEnd
0
BLOCK
5
1C
100
AcDbEntity
100
AcDbBlockBegin
2
*PAPER_SPACE
0
ENDBLK
5
1D
100
AcDbEntity
100
AcDbBlockEnd
0
ENDSEC
0
SECTION
2
ENTITIES
0
LWPOLYLINE
5
100
100
AcDbEntity
8
0
100
AcDbPolyline
90
4
70
1
43
0.0
10
16.524999999999999
20
-2.5250000000000004
10
2.5250000000000017
20
-2.5250000000000004
10
2.5250000000000017
20
-16.524999999999999
10
16.524999999999999
20
-16.524999999999999
0
LWPOLYLINE
5
101
100
AcDbEntity
8
0
100
AcDbPolyline
90
4
70
1
43
0.0
10
40.337499999999991
20
-2.5250000000000004
10
26.337499999999999
20
-2.5250000000000004
10
26.337499999999999
20
-16.524999999999999
10
40.337499999999991
20
-16.524999999999999
0
LWPOLYLINE
5
102
100
AcDbEntity
8
0
100
AcDbPolyline
90
4
70
1
43
0.0
10
59.387499999999996
20
-2.5250000000000004
10
45.387500000000003
20
-2.5250000000000004
10
45.387500000000003
20
-16.524999999999999
10
59.387499999999996
20
-16.524999999999999
0
LWPOLYLINE
5
103
100
AcDbEntity
8
0
100
AcDbPolyline
90
4
70
1
43
0.0
10
78.4375
20
-2.5250000000000004
10
64.4375
20
-2.5250000000000004
10
64.4375
20
-16.524999999999999
10
78.4375
20
-16.524999999999999
0
LWPOLYLINE
5
104
100
AcDbEntity
8
0
100
AcDbPolyline
90
4
70
1
43
0.0
10
102.25
20
-2.5250000000000004
10
88.25
20
-2.5250000000000004
10
88.25
20
-16.524999999999999
10
102.25
20
-16.524999999999999
0
LWPOLYLINE
5
105
100
AcDbEntity
8
0
100
AcDbPolyline
90
4
70
1
43
0.0
10
121.30000000000001
20
-2.5250000000000004
10
107.30000000000001
20
-2.5250000000000004
10
107.30000000000001
20
-16.524999999999999
10
121.30000000000001
20
-16.524999999999999
0
LWPOLYLINE
5
106
100
AcDbEntity
8
0
100
AcDbPolyline
90
4
70
1
43
0.0
10
140.34999999999999
20
-2.5250000000000004
10
126.34999999999999
20
-2.5250000000000004
10
126.34999999999999
20
-16.524999999999999
10
140.34999999999999
20
-16.524999999999999
0
LWPOLYLINE
5
107
100
AcDbEntity
8
0
100
AcDbPolyline
90
4
70
1
43
0.0
10
167.16249999999999
20
-2.5250000000000004
10
147.16249999999999
20
-2.5250000000000004
10
147.16249999999999
20
-40.337499999999991
10
167.16249999999999
20
-40.337499999999991
0
LWPOLYLINE
5
108
100
AcDbEntity
8
0
100
AcDbPolyline
90
4
70
1
43
0.0
10
187.97499999999999
20
-2.5250000000000004
10
173.97500000000002
20
-2.5250000000000004
10
173.97500000000002
20
-16.524999999999999
10
187.97499999999999
20
-16.524999999999999
0
LWPOLYLINE
5
109
100
AcDbEntity
8
0
100
AcDbPolyline
90
4
70
1
43
0.0
10
207.02500000000001
20
-2.5250000000000004
10
193.02500000000003
20
-2.5250000000000004
10
193.02500000000003
20
-16.524999999999999
10
207.02500000000001
20
-16.524999999999999
0
LWPOLYLINE
5
110
100
AcDbEntity
8
0
100
AcDbPolyline
90
4
70
1
43
0.0
10
226.07500000000002
20
-2.5250000000000004
10
212.07500000000005
20
-2.5250000000000004
10
212.07500000000005
20
-16.524999999999999
10
226.07500000000002
20
-16.524999999999999
0
LWPOLYLINE
5
111
100
AcDbEntity
8
0
100
AcDbPolyline
90
4
70
1
43
0.0
10
16.524999999999999
20
-26.337499999999999
10
2.5250000000000017
20
-26.337499999999999
10
2.5250000000000017
20
-40.337499999999991
10
16.524999999999999
20
-40.337499999999991
0
LWPOLYLINE
5
112
100
AcDbEntity
8
0
100
AcDbPolyline
90
4
70
1
43
0.0
10
35.575000000000003
20
-26.337499999999999
10
21.575000000000003
20
-26.337499999999999
10
21.575000000000003
20
-40.337499999999991
10
35.575000000000003
20
-40.337499999999991
0
LWPOLYLINE
5
113
100
AcDbEntity
8
0
100
AcDbPolyline
90
4
70
1
43
0.0
10
54.625
20
-26.337499999999999
10
40.625
20
-26.337499999999999
10
40.625
20
-40.337499999999991
10
54.625
20
-40.337499999999991
0
LWPOLYLINE
5
114
100
AcDbEntity
8
0
100
AcDbPolyline
90
4
70
1
43
0.0
10
73.674999999999997
20
-26.337499999999999
10
59.675000000000004
20
-26.337499999999999
10
59.675000000000004
20
-40.337499999999991
10
73.674999999999997
20
-40.337499999999991
0
LWPOLYLINE
5
115
100
AcDbEntity
8
0
100
AcDbPolyline
90
4
70
1
43
0.0
10
92.725000000000009
20
-26.337499999999999
10
78.725000000000009
20
-26.337499999999999
10
78.725000000000009
20
-40.337499999999991
10
92.725000000000009
20
-40.337499999999991
0
LWPOLYLINE
5
116
100
AcDbEntity
8
0
100
AcDbPolyline
90
4
70
1
43
0.0
10
111.77500000000001
20
-26.337499999999999
10
97.775000000000006
20
-26.337499999999999
10
97.775000000000006
20
-40.337499999999991
10
111.77500000000001
20
-40.337499999999991
0
LWPOLYLINE
5
117
100
AcDbEntity
8
0
100
AcDbPolyline
90
4
70
1
43
0.0
10
137.96875
20
-49.862500000000018
10
137.96875
20
-35.862500000000011
10
123.96875
20
-35.862499999999997
10
123.96875
20
-49.862499999999997
0
LWPOLYLINE
5
118
100
AcDbEntity
8
0
100
AcDbPolyline
90
4
70
1
43
0.0
10
136.96875
20
-58.550500000000021
10
136.96875
20
-51.050500000000021
10
121.96875
20
-51.0505
10
121.96874999999999
20
-58.5505
0
LWPOLYLINE
5
119
100
AcDbEntity
8
0
100
AcDbPolyline
90
4
70
1
43
0.0
10
136.96875
20
-34.67450000000003
10
136.96875
20
-27.174500000000013
10
121.96875
20
-27.174499999999995
10
121.96875
20
-34.674500000000009
0
LWPOLYLINE
5
120
100
AcDbEntity
8
0
100
AcDbPolyline
90
4
70
1
43
0.0
10
187.97499999999999
20
-26.337499999999999
10
173.97500000000002
20
-26.337499999999999
10
173.97500000000002
20
-40.337499999999991
10
187.97499999999999
20
-40.337499999999991
0
LWPOLYLINE
5
121
100
AcDbEntity
8
0
100
AcDbPolyline
90
4
70
1
43
0.0
10
207.02500000000001
20
-26.337499999999999
10
193.02500000000003
20
-26.337499999999999
10
193.02500000000003
20
-40.337499999999991
10
207.02500000000001
20
-40.337499999999991
0
LWPOLYLINE
5
122
100
AcDbEntity
8
0
100
AcDbPolyline
90
4
70
1
43
0.0
10
226.07500000000002
20
-26.337499999999999
10
212.07500000000005
20
-26.337499999999999
10
212.07500000000005
20
-40.337499999999991
10
226.07500000000002
20
-40.337499999999991
0
LWPOLYLINE
5
123
100
AcDbEntity
8
0
100
AcDbPolyline
90
4
70
1
43
0.0
10
18.906249999999996
20
-45.387500000000003
10
4.9062500000000018
20
-45.387500000000003
10
4.9062500000000018
20
-59.387499999999996
10
18.906249999999996
20
-59.387499999999996
0
LWPOLYLINE
5
124
100
AcDbEntity
8
0
100
AcDbPolyline
90
4
70
1
43
0.0
10
40.337499999999991
20
-45.387500000000003
10
26.337499999999999
20
-45.387500000000003
10
26.337499999999999
20
-59.387499999999996
10
40.337499999999991
20
-59.387499999999996
0
LWPOLYLINE
5
125
100
AcDbEntity
8
0
100
AcDbPolyline
90
4
70
1
43
0.0
10
59.387499999999996
20
-45.387500000000003
10
45.387500000000003
20
-45.387500000000003
10
45.387500000000003
20
-59.387499999999996
10
59.387499999999996
20
-59.387499999999996
0
LWPOLYLINE
5
126
100
AcDbEntity
8
0
100
AcDbPolyline
90
4
70
1
43
0.0
10
78.4375
20
-45.387500000000003
10
64.4375
20
-45.387500000000003
10
64.4375
20
-59.387499999999996
10
78.4375
20
-59.387499999999996
0
LWPOLYLINE
5
127
100
AcDbEntity
8
0
100
AcDbPolyline
90
4
70
1
43
0.0
10
97.487499999999997
20
-45.387500000000003
10
83.487499999999983
20
-45.387500000000003
10
83.487499999999983
20
-59.387499999999996
10
97.487499999999997
20
-59.387499999999996
0
LWPOLYLINE
5
128
100
AcDbEntity
8
0
100
AcDbPolyline
90
4
70
1
43
0.0
10
116.53750000000001
20
-45.387500000000003
10
102.53749999999999
20
-45.387500000000003
10
102.53749999999999
20
-59.387499999999996
10
116.53750000000001
20
-59.387499999999996
0
LWPOLYLINE
5
129
100
AcDbEntity
8
0
100
AcDbPolyline
90
4
70
1
43
0.0
10
187.97499999999999
20
-45.387500000000003
10
173.97500000000002
20
-45.387500000000003
10
173.97500000000002
20
-59.387499999999996
10
187.97499999999999
20
-59.387499999999996
0
LWPOLYLINE
5
130
100
AcDbEntity
8
0
100
AcDbPolyline
90
4
70
1
43
0.0
10
207.02500000000001
20
-45.387500000000003
10
193.02500000000003
20
-45.387500000000003
10
193.02500000000003
20
-59.387499999999996
10
207.02500000000001
20
-59.387499999999996
0
LWPOLYLINE
5
131
100
AcDbEntity
8
0
100
AcDbPolyline
90
4
70
1
43
0.0
10
226.07500000000002
20
-45.387500000000003
10
212.07500000000005
20
-45.387500000000003
10
212.07500000000005
20
-59.387499999999996
10
226.07500000000002
20
-59.387499999999996
0
LWPOLYLINE
5
132
100
AcDbEntity
8
0
100
AcDbPolyline
90
4
70
1
43
0.0
10
164.16249999999997
20
-50.150000000000006
10
150.16249999999999
20
-50.150000000000006
10
150.16249999999999
20
-64.150000000000006
10
164.16249999999997
20
-64.150000000000006
0
LWPOLYLINE
5
133
100
AcDbEntity
8
0
100
AcDbPolyline
90
4
70
1
43
0.0
10
18.906249999999996
20
-64.4375
10
4.9062500000000018
20
-64.4375
10
4.9062500000000018
20
-78.4375
10
18.906249999999996
20
-78.4375
0
LWPOLYLINE
5
134
100
AcDbEntity
8
0
100
AcDbPolyline
90
4
70
1
43
0.0
10
42.71875
20
-64.4375
10
28.71875
20
-64.4375
10
28.71875
20
-78.4375
10
42.71875
20
-78.4375
0
LWPOLYLINE
5
135
100
AcDbEntity
8
0
100
AcDbPolyline
90
4
70
1
43
0.0
10
80.818749999999994
20
-64.4375
10
66.818750000000009
20
-64.4375
10
66.818750000000009
20
-78.4375
10
80.818749999999994
20
-78.4375
0
LWPOLYLINE
5
136
100
AcDbEntity
8
0
100
AcDbPolyline
90
4
70
1
43
0.0
10
58.130750000000013
20
-77.437500000000028
10
65.630750000000006
20
-77.437500000000028
10
65.630749999999992
20
-62.437500000000043
10
58.130749999999992
20
-62.437500000000043
0
LWPOLYLINE
5
137
100
AcDbEntity
8
0
100
AcDbPolyline
90
4
70
1
43
0.0
10
82.006750000000011
20
-77.437500000000028
10
89.506750000000011
20
-77.437500000000028
10
89.506750000000011
20
-62.437500000000021
10
82.006750000000011
20
-62.437500000000021
0
LWPOLYLINE
5
138
100
AcDbEntity
8
0
100
AcDbPolyline
90
4
70
1
43
0.0
10
118.91875
20
-64.4375
10
104.91875
20
-64.4375
10
104.91875
20
-78.4375
10
118.91875
20
-78.4375
0
LWPOLYLINE
5
139
100
AcDbEntity
8
0
100
AcDbPolyline
90
4
70
1
43
0.0
10
207.02500000000001
20
-64.4375
10
193.02500000000003
20
-64.4375
10
193.02500000000003
20
-78.4375
10
207.02500000000001
20
-78.4375
0
LWPOLYLINE
5
140
100
AcDbEntity
8
0
100
AcDbPolyline
90
4
70
1
43
0.0
10
226.07500000000002
20
-64.4375
10
212.07500000000005
20
-64.4375
10
212.07500000000005
20
-78.4375
10
226.07500000000002
20
-78.4375
0
LWPOLYLINE
5
141
100
AcDbEntity
8
0
100
AcDbPolyline
90
4
70
1
43
0.0
10
145.11250000000001
20
-69.200000000000003
10
131.11250000000001
20
-69.200000000000003
10
131.11250000000001
20
-83.200000000000003
10
145.11250000000001
20
-83.200000000000003
0
LWPOLYLINE
5
142
100
AcDbEntity
8
0
100
AcDbPolyline
90
4
70
1
43
0.0
10
164.16249999999997
20
-69.200000000000003
10
150.16249999999999
20
-69.200000000000003
10
150.16249999999999
20
-83.200000000000003
10
164.16249999999997
20
-83.200000000000003
0
LWPOLYLINE
5
143
100
AcDbEntity
8
0
100
AcDbPolyline
90
4
70
1
43
0.0
10
183.21249999999998
20
-69.200000000000003
10
169.21250000000001
20
-69.200000000000003
10
169.21250000000001
20
-83.200000000000003
10
183.21249999999998
20
-83.200000000000003
0
LWPOLYLINE
5
144
100
AcDbEntity
8
0
100
AcDbPolyline
90
10
70
1
43
0.0
10
128.57749999999999
20
-80.972500000000011
10
128.57749999999999
20
-85.735000000000014
10
185.74749999999997
20
-85.735000000000014
10
185.74749999999997
20
-80.977793463830338
10
190.50999772007577
20
-80.977205301464096
10
228.61000000000001
20
-80.972500000000011
10
228.59999999999999
20
0
10
190.49999713897705
20
0
10
0
20
0
10
0
20
-80.972500000000011
0
CIRCLE
5
145
100
AcDbEntity
8
0
100
AcDbCircle
10
209.54999685287476
20
-21.431249678134918
30
0
40
2.5
210
0
220
0
230
1
0
CIRCLE
5
146
100
AcDbEntity
8
0
100
AcDbCircle
10
209.54999685287476
20
-61.912499070167542
30
0
40
2.5000000000000027
210
0
220
0
230
1
0
CIRCLE
5
147
100
AcDbEntity
8
0
100
AcDbCircle
10
171.44999999999999
20
-61.912500000000001
30
0
40
2.5
210
0
220
0
230
1
0
CIRCLE
5
148
100
AcDbEntity
8
0
100
AcDbCircle
10
171.44999742507935
20
-21.431249678134918
30
0
40
2.5
210
0
220
0
230
1
0
CIRCLE
5
149
100
AcDbEntity
8
0
100
AcDbCircle
10
21.431249678134918
20
-21.431249678134918
30
0
40
2.5
210
0
220
0
230
1
0
CIRCLE
5
150
100
AcDbEntity
8
0
100
AcDbCircle
10
21.431249678134918
20
-61.912499070167542
30
0
40
2.5
210
0
220
0
230
1
0
LINE
5
151
100
AcDbEntity
8
0
100
AcDbLine
10
190.49999713897705
20
0
30
0
11
190.50999772007577
21
-80.977205301464096
31
0
0
ENDSEC
0
SECTION
2
OBJECTS
0
DICTIONARY
5
C
100
AcDbDictionary
3
ACAD_GROUP
350
D
3
ACAD_MLINESTYLE
350
17
0
DICTIONARY
5
D
100
AcDbDictionary
0
DICTIONARY
5
1A
330
C
100
AcDbDictionary
0
DICTIONARY
5
17
100
AcDbDictionary
0
ENDSEC
0
EOF
